<?xml version="1.0" encoding="utf-8"?>
<!-- Generator: Adobe Illustrator 19.0.0, SVG Export Plug-In . SVG Version: 6.00 Build 0)  -->
<svg version="1.1" id="Camada_1" xmlns="http://www.w3.org/2000/svg" xmlns:xlink="http://www.w3.org/1999/xlink" x="0px" y="0px"
	 viewBox="0 0 32 32" style="enable-background:new 0 0 32 32;" xml:space="preserve">
<style type="text/css">
	.st0{fill:#83D0CA;}
</style>
<path id="XMLID_15_" class="st0" d="M31,2.3h-6V1c0-0.5-0.4-1-1-1c-0.6,0-1,0.4-1,1v1.2H9V1c0-0.5-0.4-1-1-1c-0.6,0-1,0.4-1,1v1.2H1
	c-0.6,0-1,0.5-1,1v27.5C0,31.3,0.5,32,1,32H31c0.6,0,1-0.7,1-1.2V3.3C32,2.8,31.5,2.3,31,2.3z M7,4.2v1.4c0,0.5,0.4,1,1,1
	c0.6,0,1-0.4,1-1V4.2h14v1.4c0,0.5,0.4,1,1,1c0.6,0,1-0.4,1-1V4.2h5v4H2v-4H7z M2,30V10.2h28V30H2z"/>
</svg>
