<?xml version="1.0" encoding="utf-8"?>
<!-- Generator: Adobe Illustrator 21.0.0, SVG Export Plug-In . SVG Version: 6.00 Build 0)  -->
<svg version="1.1" id="Layer_1" xmlns="http://www.w3.org/2000/svg" xmlns:xlink="http://www.w3.org/1999/xlink" x="0px" y="0px"
	 viewBox="0 0 25 25" style="enable-background:new 0 0 25 25;" xml:space="preserve">
<style type="text/css">
	.st0{fill:#BDE3E1;stroke:#BDE3E1;stroke-width:0.75;stroke-miterlimit:10;}
</style>
<title>arrowLeft</title>
<g>
	<path class="st0" d="M24,16.5c-0.3,0-0.6,0.3-0.6,0.6v2.4c0,1.4-1.1,2.5-2.5,2.5H4.1c-1.4,0-2.5-1.1-2.5-2.5v-2.4
		c0-0.3-0.3-0.6-0.6-0.6s-0.6,0.3-0.6,0.6v2.4c0,2,1.7,3.7,3.7,3.7h16.9c2,0,3.7-1.7,3.7-3.7v-2.4C24.6,16.8,24.4,16.5,24,16.5z"/>
	<path class="st0" d="M6.3,11.1l5.2,4.6c0.3,0.3,0.7,0.4,1,0.4c0.4,0,0.7-0.1,1-0.4l5.2-4.6c0.3-0.2,0.3-0.6,0-0.9
		c-0.2-0.3-0.6-0.3-0.9,0l-4.8,4.3v-12c0-0.3-0.3-0.6-0.6-0.6c-0.3,0-0.6,0.3-0.6,0.6v12l-4.8-4.3c-0.3-0.2-0.6-0.2-0.9,0
		C6,10.5,6,10.9,6.3,11.1z"/>
</g>
</svg>
