<?xml version="1.0" encoding="utf-8"?>
<!-- Generator: Adobe Illustrator 21.0.0, SVG Export Plug-In . SVG Version: 6.00 Build 0)  -->
<svg version="1.1" id="Layer_1" xmlns="http://www.w3.org/2000/svg" xmlns:xlink="http://www.w3.org/1999/xlink" x="0px" y="0px"
	 viewBox="0 0 25 25" style="enable-background:new 0 0 25 25;" xml:space="preserve">
<style type="text/css">
	.st0{fill:#83D0CA;}
	.st1{fill:#FFFFFF;}
</style>
<g>
	<path class="st0" d="M23.9,24.9c-0.3,0-0.5-0.1-0.7-0.3l-5.7-5.7l-0.1,0.1c-1.9,1.5-4.3,2.4-6.7,2.4c-5.8,0-10.6-4.8-10.6-10.6
		S4.9,0.1,10.7,0.1c5.8,0,10.6,4.8,10.6,10.6c0,2.4-0.8,4.8-2.4,6.7l-0.1,0.1l5.7,5.7c0.2,0.2,0.3,0.4,0.3,0.7
		c0,0.3-0.1,0.5-0.3,0.7C24.4,24.8,24.2,24.9,23.9,24.9z M10.7,2.1c-4.8,0-8.7,3.9-8.7,8.7c0,4.8,3.9,8.7,8.7,8.7s8.7-3.9,8.7-8.7
		C19.4,5.9,15.5,2.1,10.7,2.1z"/>
	<path class="st1" d="M10.7,0.3c5.8,0,10.5,4.7,10.5,10.5c0,2.4-0.8,4.7-2.4,6.6l-0.1,0.2l0.2,0.2l5.7,5.7c0.2,0.2,0.2,0.4,0.2,0.6
		c0,0.2-0.1,0.4-0.2,0.6c-0.2,0.2-0.4,0.2-0.6,0.2c-0.2,0-0.4-0.1-0.6-0.2l-5.7-5.7l-0.2-0.2l-0.2,0.1c-1.9,1.5-4.2,2.4-6.6,2.4
		c-5.8,0-10.5-4.7-10.5-10.5C0.3,4.9,4.9,0.3,10.7,0.3 M10.7,19.5c4.8,0,8.8-3.9,8.8-8.8c0-4.8-3.9-8.8-8.8-8.8s-8.8,3.9-8.8,8.8
		C1.9,15.6,5.9,19.5,10.7,19.5 M10.7,0C4.8,0,0,4.8,0,10.7c0,5.9,4.8,10.7,10.7,10.7c2.5,0,4.9-0.9,6.8-2.4l5.7,5.7
		c0.2,0.2,0.5,0.3,0.8,0.3c0.3,0,0.6-0.1,0.8-0.3c0.4-0.4,0.4-1.1,0-1.5L19,17.5c1.6-1.9,2.4-4.3,2.4-6.8C21.4,4.8,16.6,0,10.7,0
		L10.7,0z M10.7,19.2c-4.7,0-8.5-3.8-8.5-8.5C2.2,6,6,2.2,10.7,2.2s8.5,3.8,8.5,8.5C19.2,15.4,15.4,19.2,10.7,19.2L10.7,19.2z"/>
</g>
</svg>
