<?xml version="1.0" encoding="utf-8"?>
<!-- Generator: Adobe Illustrator 19.0.0, SVG Export Plug-In . SVG Version: 6.00 Build 0)  -->
<svg version="1.1" xmlns="http://www.w3.org/2000/svg" xmlns:xlink="http://www.w3.org/1999/xlink" x="0px" y="0px"
	 viewBox="0 0 436.7 130.7" style="enable-background:new 0 0 436.7 130.7;" xml:space="preserve">
<style type="text/css">
	.st0{fill:#484848;}
	.st1{display:none;}
	.st2{display:inline;}
</style>
<g id="Layer_1">
	<path id="XMLID_1_" class="st0" d="M65.7,106.4c0,7.7-2.3,13.7-6.9,18.1c-4.6,4.4-10.7,6.6-18.5,6.6H0.5V0.1h39.9
		c7.8,0,13.9,2.2,18.5,6.7c4.6,4.4,6.9,10.5,6.9,18.2V106.4z M46.1,103.1V27.9c0-7.3-3.8-11-11.5-11H20.1v97.3h14.1
		C42.1,114.3,46.1,110.5,46.1,103.1z"/>
	<path id="XMLID_4_" class="st0" d="M149.5,131.8h-19.4l-3.9-24.9h-24.5l-3.9,24.9H78.4v-0.3L103.7,0.7h20.6L149.5,131.8z
		 M123.4,90.2l-9.5-59.1l-9.6,59.1H123.4z"/>
	<path id="XMLID_7_" class="st0" d="M215.1,17.4h-21.6v113.6H174V17.4h-21.6V0.1h62.7V17.4z"/>
	<path id="XMLID_9_" class="st0" d="M284.9,131.1h-54.3V0.1h53.8v17.3h-34.2v38.2h29.5v17h-29.5v41.1h34.7V131.1z"/>
	<g id="XMLID_11_">
		<path id="XMLID_12_" class="st0" d="M306.3,0.1v131h131V0.1H306.3z M377,112h-9.6v-9.6h9.6V112z M377,83h-9.6V19.3h9.6V83z
			 M379,99.3h-14.4 M377.6,91.6h-11.4"/>
	</g>
</g>
<g id="Camada_2" class="st1">
	<path id="XMLID_17_" class="st2" d="M289.3-199.4v131h131v-131H289.3z M362-85.2h-14.4v-14.9H362V-85.2z M360.6-107.9h-11.4
		l-5.6-74.6h22.7L360.6-107.9z"/>
	<path id="XMLID_22_" class="st2" d="M65.7-93.1c0,7.7-2.3,13.7-6.9,18.1c-4.6,4.4-10.7,6.6-18.5,6.6H0.5v-131h39.9
		c7.8,0,13.9,2.2,18.5,6.7c4.6,4.4,6.9,10.5,6.9,18.2V-93.1z M46.1-96.4v-75.2c0-7.3-3.8-11-11.5-11H20.1v97.3h14.1
		C42.1-85.2,46.1-89,46.1-96.4z"/>
	<path id="XMLID_25_" class="st2" d="M147.2-68.4h-19.4l-3.9-24.9H99.4l-3.9,24.9H76.1v-0.3l25.4-130.8h20.6L147.2-68.4z
		 M121.1-110.1l-9.5-59.1l-9.6,59.1H121.1z"/>
	<path id="XMLID_28_" class="st2" d="M215.1-182.1h-21.6v113.6H174v-113.6h-21.6v-17.3h62.7V-182.1z"/>
	<path id="XMLID_30_" class="st2" d="M279.4-68.4h-54.3v-131h53.8v17.3h-34.2v38.2h29.5v17h-29.5v41.1h34.7V-68.4z"/>
</g>
</svg>
